<?xml version="1.0" encoding="UTF-8"?>
<svg version="1.1" xmlns="http://www.w3.org/2000/svg" width="400" height="400">
<path d="M0 0 C1.11464165 -0.00551503 1.11464165 -0.00551503 2.25180131 -0.01114148 C4.73162081 -0.02211786 7.21139832 -0.02601195 9.6912384 -0.02983093 C11.47408174 -0.03610054 13.25692377 -0.04274778 15.0397644 -0.04974365 C20.88948159 -0.0707411 26.73919888 -0.08114742 32.58894348 -0.09111023 C34.60992763 -0.0951605 36.63091164 -0.0992775 38.65189552 -0.10346031 C48.15650594 -0.12250872 57.66110864 -0.13673606 67.16573447 -0.14507228 C78.096464 -0.1548199 89.02698969 -0.18107599 99.9576475 -0.22157317 C108.43018382 -0.25187278 116.90266221 -0.26655451 125.37525159 -0.26985329 C130.42340836 -0.27218955 135.47134733 -0.28096129 140.51944542 -0.30631447 C145.28100943 -0.32984133 150.04221608 -0.33373113 154.80382347 -0.32355309 C156.53580932 -0.3230634 158.26781425 -0.32921253 159.99974442 -0.34310913 C193.84906053 -0.59914079 225.05974477 12.43544649 249.32331848 35.95576477 C269.8551092 56.6412078 284.57607703 86.23610325 284.56814575 115.72619629 C284.57182244 116.46929072 284.57549913 117.21238515 284.57928723 117.9779976 C284.59026362 120.4578171 284.5941577 122.93759461 284.59797668 125.41743469 C284.60424629 127.20027802 284.61089353 128.98312006 284.6178894 130.76596069 C284.63888686 136.61567788 284.64929318 142.46539517 284.65925598 148.31513977 C284.66330625 150.33612392 284.66742325 152.35710793 284.67160606 154.37809181 C284.69065447 163.88270223 284.70488182 173.38730493 284.71321803 182.89193076 C284.72296565 193.82266029 284.74922174 204.75318598 284.78971893 215.68384379 C284.82001854 224.15638011 284.83470026 232.62885849 284.83799905 241.10144788 C284.8403353 246.14960465 284.84910704 251.19754362 284.87446022 256.24564171 C284.89798708 261.00720572 284.90187688 265.76841237 284.89169884 270.53001976 C284.89120916 272.26200561 284.89735828 273.99401054 284.91125488 275.7259407 C285.1665385 309.47636037 272.10168854 340.81433821 248.61238098 365.04951477 C231.65102114 381.88488494 210.56940013 392.63564116 187.42097473 398.14717102 C186.71754189 398.31587015 186.01410904 398.48456928 185.28936005 398.65838051 C176.41882995 400.53454481 167.59893943 400.44377897 158.58308411 400.43769836 C156.79950177 400.44369297 155.015922 400.45050064 153.23234558 400.45805359 C148.41367904 400.47563064 143.59508367 400.48040559 138.77638817 400.48168516 C135.75614063 400.48311258 132.73591083 400.48739341 129.71566772 400.4926796 C119.15095382 400.51115581 108.58629019 400.51935365 98.02156067 400.51777649 C88.22013449 400.51657729 78.41892929 400.53764231 68.61755896 400.56926382 C60.16614432 400.59554473 51.7148013 400.60613879 43.2633462 400.60486567 C38.23204417 400.60435929 33.20093855 400.60986043 28.16967773 400.63122177 C23.42854983 400.65080326 18.68780159 400.65059486 13.94665909 400.63618851 C12.22273824 400.63412339 10.49879236 400.63866106 8.77491379 400.65090942 C-6.71503265 400.75369191 -21.87925306 398.54805695 -36.39152527 392.89717102 C-37.56050354 392.45220276 -37.56050354 392.45220276 -38.75309753 391.99824524 C-69.04338143 380.07596962 -93.36668829 355.49000119 -106.4896698 325.90351868 C-111.98051479 312.9270496 -115.72999775 298.70275703 -115.72619629 284.56814575 C-115.73171132 283.4535041 -115.73171132 283.4535041 -115.73733777 282.31634444 C-115.74831415 279.83652494 -115.75220824 277.35674744 -115.75602722 274.87690735 C-115.76229683 273.09406402 -115.76894407 271.31122198 -115.77593994 269.52838135 C-115.79693739 263.67866416 -115.80734371 257.82894687 -115.81730652 251.97920227 C-115.82135679 249.95821812 -115.82547379 247.93723411 -115.8296566 245.91625023 C-115.84870501 236.41163981 -115.86293235 226.90703711 -115.87126857 217.40241128 C-115.88101619 206.47168175 -115.90727228 195.54115606 -115.94776946 184.61049825 C-115.97806907 176.13796193 -115.9927508 167.66548355 -115.99604958 159.19289416 C-115.99838584 154.14473739 -116.00715758 149.09679842 -116.03251076 144.04870033 C-116.05603762 139.28713632 -116.05992742 134.52592967 -116.04974937 129.76432228 C-116.04925969 128.03233643 -116.05540882 126.3003315 -116.06930542 124.56840134 C-116.32458904 90.81798167 -103.25973908 59.48000383 -79.77043152 35.24482727 C-59.08498849 14.71303655 -29.49009304 -0.00793128 0 0 Z " fill="#DFDFDF" transform="translate(115.57902526855469,-0.1471710205078125)"/>
<path d="M0 0 C1.1432373 -0.00151062 1.1432373 -0.00151062 2.30957031 -0.00305176 C14.74581787 0.0080567 26.72009329 0.78672917 38.9375 3.25 C39.70900391 3.39985352 40.48050781 3.54970703 41.27539062 3.70410156 C46.53501869 4.74062241 51.73838013 5.94581001 56.9375 7.25 C57.6485791 7.42225098 58.3596582 7.59450195 59.09228516 7.77197266 C74.6674477 11.60994786 89.05637998 18.28896672 100.9375 29.25 C101.82695312 30.05953125 102.71640625 30.8690625 103.6328125 31.703125 C110.80835325 38.53887691 116.57645788 45.943381 121.9375 54.25 C122.48809082 55.09014648 122.48809082 55.09014648 123.04980469 55.94726562 C128.02611187 63.69628193 130.61811124 70.05480859 128.9375 79.25 C124.87953835 96.22075902 116.15044037 109.80036666 106.1015625 123.8046875 C102.84229211 128.35876425 99.68289485 132.97488418 96.5625 137.625 C95.8494873 138.6754248 95.8494873 138.6754248 95.12207031 139.74707031 C93.68865939 141.8926728 92.30366433 144.06097858 90.9375 146.25 C90.41639648 147.07491943 89.89529297 147.89983887 89.35839844 148.74975586 C85.09085866 155.95500902 83.40362265 162.87210972 81.9375 171.0625 C77.49664561 193.67303775 77.49664561 193.67303775 70.8203125 201.83984375 C68.96104253 204.2198636 68.39457839 205.46112525 67.9375 208.375 C67.34668932 211.04627223 67.02322843 212.14522081 65.25 214.3125 C61.8209699 215.70264734 59.53415746 215.02835356 55.9375 214.25 C53.37949026 213.04134648 51.05351488 211.54557703 48.6875 210 C33.55193658 200.55285787 16.42590763 193.81278982 -1.625 193.9375 C-2.49415039 193.94313965 -3.36330078 193.9487793 -4.25878906 193.95458984 C-19.83660717 194.24264543 -34.95340709 198.10095134 -48.625 205.6875 C-52.7239209 207.55064586 -54.78777568 207.59108998 -59.0625 206.25 C-62.15013249 203.11938423 -62.33496398 200.8587356 -62.3125 196.5625 C-62.65515435 190.66598979 -64.2704017 187.96268602 -68.14770508 183.64282227 C-74.11882026 176.18102195 -76.69796136 165.95501196 -79.625 157 C-80.01848633 155.80777832 -80.41197266 154.61555664 -80.81738281 153.38720703 C-83.13765325 146.28803096 -85.28968694 139.19806611 -87.10888672 131.95361328 C-89.64253841 122.11349649 -92.49021404 112.43297886 -96.17578125 102.9609375 C-103.7942084 83.29056745 -110.54691075 63.81053166 -101.6640625 43.19140625 C-95.33489548 31.56735072 -84.83264757 22.24832096 -72.0625 18.25 C-70.08614183 17.88048261 -68.10651197 17.52830058 -66.125 17.1875 C-57.41511507 15.50263701 -49.55831178 11.85110631 -41.47680664 8.27319336 C-27.41579948 2.07432302 -15.30724651 0.01393953 0 0 Z " fill="#272932" transform="translate(195.0625,37.75)"/>
<path d="M0 0 C1.25184082 0.00757324 2.50368164 0.01514648 3.79345703 0.02294922 C25.96478048 0.40116754 47.46955683 4.11456561 68.6875 10.4375 C67.3721668 13.93841209 65.79874872 17.23259256 64.07324219 20.54882812 C56.28218035 35.58896489 50.32707291 50.89885252 46.6875 67.4375 C46.42453125 68.41589844 46.1615625 69.39429687 45.890625 70.40234375 C39.15959336 95.98713237 40.01558624 123.19422584 39.6875 149.4375 C38.61371094 149.16035156 37.53992188 148.88320312 36.43359375 148.59765625 C34.99744471 148.23157904 33.56124401 147.86570442 32.125 147.5 C31.42052734 147.31759766 30.71605469 147.13519531 29.99023438 146.94726562 C25.56612902 145.8259486 21.21694562 145.00293671 16.6875 144.4375 C11.01068706 107.48753005 15.3897142 67.81773555 21.625 31.125 C21.79612305 30.10535156 21.96724609 29.08570312 22.14355469 28.03515625 C23.33874797 21.07321104 24.72168476 14.22849811 26.6875 7.4375 C23.34838818 8.80660592 22.03477089 9.98844036 20.46875 13.2265625 C20.09564697 13.99532715 19.72254395 14.7640918 19.33813477 15.55615234 C18.95842529 16.38324707 18.57871582 17.2103418 18.1875 18.0625 C17.79167725 18.91408691 17.39585449 19.76567383 16.98803711 20.64306641 C13.50461859 28.38864324 11.19129277 36.08040245 9.6875 44.4375 C9.4258606 45.75669434 9.4258606 45.75669434 9.15893555 47.10253906 C7.34559437 57.20440417 7.33727116 67.21069064 7.375 77.4375 C7.3757402 78.81281387 7.3757402 78.81281387 7.37649536 80.21591187 C7.32254109 105.6272966 7.32254109 105.6272966 11.23461914 130.6472168 C11.9180905 134.85821097 11.6875 139.17140049 11.6875 143.4375 C4.4275 143.4375 -2.8325 143.4375 -10.3125 143.4375 C-14.19767256 123.64740225 -16.06615432 105.37878859 -12.3125 85.4375 C-13.3025 85.7675 -14.2925 86.0975 -15.3125 86.4375 C-15.6425 88.7475 -15.9725 91.0575 -16.3125 93.4375 C-16.9725 93.4375 -17.6325 93.4375 -18.3125 93.4375 C-18.63011553 91.06309264 -18.94156512 88.68810483 -19.25 86.3125 C-19.33701172 85.66667969 -19.42402344 85.02085937 -19.51367188 84.35546875 C-21.21984911 71.08520136 -21.49894429 57.86379637 -21.49780273 44.50415039 C-21.50000943 41.61264747 -21.51829414 38.72151499 -21.53710938 35.83007812 C-21.54004092 33.96354295 -21.54202731 32.09700599 -21.54296875 30.23046875 C-21.55015427 29.38026657 -21.55733978 28.53006439 -21.56474304 27.65409851 C-21.54030058 21.17908529 -21.30207164 14.35080133 -17.5625 8.875 C-14.66664399 7.02486977 -12.68365698 7.13103118 -9.3125 7.4375 C-4.29229955 20.57802468 -7.98540602 36.18911435 -9.92773438 49.69335938 C-10.66284588 54.93615969 -11.2611087 60.19591042 -11.8828125 65.453125 C-12.3125 68.4375 -12.3125 68.4375 -13.3125 71.4375 C-12.3225 71.1075 -11.3325 70.7775 -10.3125 70.4375 C-3.26341268 37.40646108 -3.26341268 37.40646108 -6.3125 4.4375 C-14.27994262 3.89924454 -14.27994262 3.89924454 -21.8125 6.0625 C-30.24052563 14.06912435 -32.21103702 25.24019468 -32.6328125 36.41015625 C-32.84907767 48.87183582 -32.15773744 61.1213071 -30.3125 73.4375 C-30.14588867 74.58025391 -29.97927734 75.72300781 -29.80761719 76.90039062 C-26.6698893 98.17624502 -22.55319913 118.66767531 -15.44921875 139.0078125 C-14.3125 142.4375 -14.3125 142.4375 -14.3125 144.4375 C-16.70710588 145.25377446 -19.10306526 146.06561645 -21.5 146.875 C-22.51030273 147.22014648 -22.51030273 147.22014648 -23.54101562 147.57226562 C-27.10764491 148.77274085 -30.5996161 149.81027495 -34.3125 150.4375 C-35.09312476 149.27736202 -35.86134971 148.10888097 -36.625 146.9375 C-37.05425781 146.2878125 -37.48351562 145.638125 -37.92578125 144.96875 C-48.71489392 125.2748204 -45.85156256 99.08309045 -45.98205566 77.36993408 C-46.01224391 72.85720214 -46.05863857 68.34463678 -46.10351562 63.83203125 C-46.18869978 55.03393752 -46.25641401 46.23582722 -46.3125 37.4375 C-46.9725 37.4375 -47.6325 37.4375 -48.3125 37.4375 C-48.6425 45.3575 -48.9725 53.2775 -49.3125 61.4375 C-51.58121593 59.16878407 -51.96948157 57.77618846 -52.9375 54.75 C-54.68350992 49.78109208 -56.84293958 45.19991242 -59.3125 40.5625 C-59.64459473 39.93255127 -59.97668945 39.30260254 -60.31884766 38.65356445 C-61.88367603 35.76651377 -63.49564515 33.21362084 -65.578125 30.66796875 C-67.3125 28.4375 -67.3125 28.4375 -67.0625 25.625 C-66.815 24.903125 -66.5675 24.18125 -66.3125 23.4375 C-61.59846212 23.91689368 -57.64670699 24.40584048 -53.3125 26.4375 C-53.3125 25.1175 -53.3125 23.7975 -53.3125 22.4375 C-53.9725 22.31375 -54.6325 22.19 -55.3125 22.0625 C-59.00948583 21.29229462 -62.65255942 20.36799337 -66.3125 19.4375 C-66.3125 19.1075 -66.3125 18.7775 -66.3125 18.4375 C-65.45914063 18.27636719 -64.60578125 18.11523438 -63.7265625 17.94921875 C-53.15345834 15.64929609 -43.5915527 11.81312558 -33.71533203 7.41088867 C-22.27961937 2.3605949 -12.5451812 -0.10843002 0 0 Z " fill="#EAE8D6" transform="translate(192.3125,44.5625)"/>
<path d="M0 0 C4.41262019 0.771424 7.84249317 2.31971137 11.6875 4.5625 C12.30181885 4.91820068 12.9161377 5.27390137 13.54907227 5.64038086 C19.11971119 8.9409354 24.14660635 12.70931866 29 17 C29.88171875 17.75796875 29.88171875 17.75796875 30.78125 18.53125 C36.67264095 23.97800767 41.23196757 30.71965236 45.79638672 37.27587891 C46.78414763 38.69080133 47.79690298 40.08824385 48.81640625 41.48046875 C53.03395505 47.88489471 52.97727972 54.55329005 52 62 C48.00307935 77.7964424 37.72949434 91.69912523 28.21875 104.60546875 C25.24807555 108.63975075 22.36591222 112.72286339 19.5625 116.875 C18.82128906 117.96554688 18.08007812 119.05609375 17.31640625 120.1796875 C11.10850981 130.11888956 7.69248197 139.80335241 5.3125 151.25 C1.95085631 166.97500068 1.95085631 166.97500068 -1 174 C-1.33 174 -1.66 174 -2 174 C-2.07476562 172.865625 -2.14953125 171.73125 -2.2265625 170.5625 C-2.86061293 159.77848049 -2.86061293 159.77848049 -8.03125 150.63671875 C-14.05362149 145.63002499 -20.68329217 141.76408962 -28 139 C-28.34914746 130.37799739 -27.0228436 122.05919875 -25.75 113.5625 C-25.51849426 111.99459247 -25.2872966 110.42663942 -25.05639648 108.85864258 C-24.59226166 105.71351447 -24.12399008 102.56903383 -23.65380859 99.42480469 C-23.0723684 95.51846041 -22.52541583 91.60801759 -21.98828125 87.6953125 C-19.65237806 71.00748259 -15.73812362 55.30417505 -10.49609375 39.30078125 C-10.2759259 38.62668716 -10.05575806 37.95259308 -9.82891846 37.2580719 C-8.7417971 33.9357775 -7.64219687 30.6187804 -6.51513672 27.30981445 C-3.50892059 18.28468462 -1.53822994 9.37433565 0 0 Z " fill="#EAE9D6" transform="translate(264,57)"/>
<path d="M0 0 C2.20174358 1.81722855 3.39124727 3.58687091 5 6 C8.76604532 5.66770188 10.00683583 4.99375859 12.875 2.375 C16 0 16 0 19.6875 -0.0625 C23 1 23 1 25 2.5 C26.55165426 6.37913565 25.71608537 9.96231384 25 14 C26.20849609 14.11988281 26.20849609 14.11988281 27.44140625 14.2421875 C32.78098735 15.37926624 37.41345201 17.8661337 42.27929688 20.29296875 C47.26890669 22.64647871 50.47961734 23.5838793 56 22 C58.71000249 20.64792482 58.71000249 20.64792482 61.125 18.9375 C63.65170548 17.22208494 65.49178951 16.10116416 68.4921875 15.50390625 C72.31614886 16.26035967 73.69073841 17.91693321 76 21 C77.80116803 30.67333184 76.30775339 40.66633112 71 49 C64.72727614 56.50751202 56.58410569 60.48892932 47 62 C29.39989619 63.17591055 17.26564263 58.56491922 4 47 C3.63390625 47.43570313 3.2678125 47.87140625 2.890625 48.3203125 C-5.21366992 57.23503691 -15.90860872 61.4571813 -27.7265625 62.25 C-39.44859388 62.72145537 -48.88651682 60.65082137 -58.05859375 52.98828125 C-65.6809912 45.18184201 -67.18653578 35.5880396 -67.4609375 25.0859375 C-66.89496504 21.29679986 -65.68598101 19.68598101 -63 17 C-59.8125 15.8125 -59.8125 15.8125 -56 16 C-52.76041074 17.70476746 -49.91754726 19.80144096 -47 22 C-44.06832164 23.46583918 -42.29104802 23.32761564 -39 23 C-34.96498135 21.37701752 -31.16341509 19.26283181 -27.33984375 17.19921875 C-21.37422597 14.16340356 -16.66624958 13.42830469 -10 14 C-10.33386719 13.41347656 -10.66773438 12.82695312 -11.01171875 12.22265625 C-12.49346822 8.89018412 -11.82333708 6.4833492 -11 3 C-8.75623948 -1.0915633 -4.16159805 -1.04444776 0 0 Z " fill="#23252E" transform="translate(194,301)"/>
<path d="M0 0 C1.83111328 -0.02416992 1.83111328 -0.02416992 3.69921875 -0.04882812 C23.03658191 -0.05905953 45.07555286 5.54224478 59.41015625 19.2109375 C63.5431837 25.69364528 63.00102824 33.42530608 62.875 40.8125 C62.86597656 41.82570312 62.85695313 42.83890625 62.84765625 43.8828125 C62.82429007 46.35962801 62.79153168 48.83593379 62.75 51.3125 C59.21352028 50.52004935 56.81787348 49.20755299 53.75 47.25 C29.80080556 33.12462561 1.12409882 26.97998519 -26.25 33.3125 C-27.18199219 33.49554688 -28.11398438 33.67859375 -29.07421875 33.8671875 C-36.1280743 35.39285452 -42.46618332 37.97176156 -48.99511719 40.9753418 C-54.07638587 43.3125 -54.07638587 43.3125 -56.25 43.3125 C-58.01394879 28.27439113 -58.01394879 28.27439113 -54.15234375 22.7578125 C-51.47642343 19.57846716 -48.45902112 16.94585703 -45.25 14.3125 C-44.40179688 13.61511719 -43.55359375 12.91773438 -42.6796875 12.19921875 C-29.43584799 2.25569294 -16.21006112 -0.04225772 0 0 Z " fill="#EB4166" transform="translate(195.25,191.6875)"/>
<path d="M0 0 C3.21111711 1.4253145 5.18285829 2.97937427 7 6 C7.86040643 9.52597931 7.82483513 12.46923093 7 16 C5.0625 18.75 5.0625 18.75 2 21 C1.29875 21.5259375 0.5975 22.051875 -0.125 22.59375 C-4.33296535 25.60756302 -7.6835531 27.7273617 -13 28 C-13 28.66 -13 29.32 -13 30 C-11.7625 30.37125 -10.525 30.7425 -9.25 31.125 C-1.26274063 33.80851662 7.23319388 36.71614206 12 44 C12.91677796 47.81148631 12.34406493 51.15895241 10.875 54.75 C7.85440058 58.3747193 5.23726977 60.59416967 0.48046875 61.45703125 C-6.09596071 61.8525368 -9.1699604 60.39520459 -14.46411133 56.67089844 C-18.94908366 53.71574771 -23.82327184 51.56650074 -28.6875 49.3125 C-30.69157188 48.37144639 -32.69548297 47.43005028 -34.69921875 46.48828125 C-37.65088383 45.10252782 -40.60273725 43.71717714 -43.5546875 42.33203125 C-47.05738029 40.42401489 -48.32757824 38.612431 -50 35 C-50.32958008 30.51449546 -49.43184523 26.93879398 -47.5625 22.875 C-41.14318608 15.67284292 -32.85114248 11.74244946 -24.15356445 7.92822266 C-20.56904991 6.33260803 -17.44953933 4.68755222 -14.32421875 2.30078125 C-9.75455173 -1.09929573 -5.50150354 -1.10352267 0 0 Z " fill="#23242E" transform="translate(126,255)"/>
<path d="M0 0 C2.375 1.375 2.375 1.375 4 3 C4 3.66 4 4.32 4 5 C4.59425781 4.71125 5.18851563 4.4225 5.80078125 4.125 C12.25923966 1.23225347 17.92910363 -0.08353388 25 1 C29.91451365 3.31816682 34.25721879 7.24982095 37 12 C37.1875 15.6875 37.1875 15.6875 36 19 C33.625 21.3125 33.625 21.3125 31 23 C30.01 23.66 29.02 24.32 28 25 C28.72896484 26.01126953 28.72896484 26.01126953 29.47265625 27.04296875 C32.51741866 32.93781566 32.03416716 41.2747742 30.2734375 47.6171875 C27.68182001 53.20075365 23.60074056 56.5418972 18 59 C13.16082318 59.86413872 9.05103296 59.41933104 4.75 57 C-0.24662246 53.50934559 -3.0963708 48.71088759 -5 43 C-5.63935804 35.24385331 -5.73220236 29.35889692 -1 23 C-1.680625 22.835 -2.36125 22.67 -3.0625 22.5 C-7.44154205 20.26389342 -10.32878838 17.1072669 -13 13 C-13.75 9.3125 -13.75 9.3125 -13 6 C-8.94170561 1.08732784 -6.34698805 -0.50775904 0 0 Z " fill="#22242E" transform="translate(156,247)"/>
<path d="M0 0 C0.97179199 0.40573242 1.94358398 0.81146484 2.94482422 1.22949219 C12.12101246 5.18567467 20.28266618 9.66762339 26.1875 18 C26.87710701 22.74104818 26.29086354 25.49117338 23.54785156 29.40063477 C20.89284812 32.52212212 17.60029938 34.83579178 14.3125 37.25 C13.19379517 38.08772949 13.19379517 38.08772949 12.05249023 38.94238281 C9.77361687 40.6415534 7.48349248 42.3240496 5.1875 44 C4.4847998 44.51304687 3.78209961 45.02609375 3.05810547 45.5546875 C-10.68800011 55.54945145 -10.68800011 55.54945145 -18.2578125 55.47265625 C-22.04102326 54.77270441 -23.63209302 53.07239165 -25.8125 50 C-27.43730718 46.75038565 -27.45751845 44.54760147 -26.8125 41 C-24.14310606 36.26276568 -21.39718187 33.68365702 -16.8125 30.8125 C-13.38378168 28.63954977 -10.02017725 26.49057632 -6.8125 24 C-7.6478125 23.76216797 -7.6478125 23.76216797 -8.5 23.51953125 C-15.84201732 21.27475906 -24.01121669 18.10674706 -27.8125 11 C-27.8125 6.330681 -27.4780609 4.05571728 -25 0.125 C-17.4018443 -7.25606554 -8.65270511 -3.67030424 0 0 Z " fill="#23252E" transform="translate(284.8125,258)"/>
<path d="M0 0 C0.66 0.33 1.32 0.66 2 1 C1.484375 1.350625 0.96875 1.70125 0.4375 2.0625 C-1.31654368 4.0245571 -1.31654368 4.0245571 -1 7.1875 C-0.13244012 10.49507206 0.4759542 11.93556915 2.3125 14.625 C10.21845673 26.70038059 10.4857808 42.06809138 12 56 C12.5757273 61.25704835 13.15836944 66.51328926 13.74633789 71.76898193 C13.99270817 73.99657003 14.23025894 76.22496282 14.46679688 78.45361328 C15.76405805 90.39645873 17.14516016 102.58952897 21.8125 113.75 C22.19172607 114.66604004 22.19172607 114.66604004 22.57861328 115.60058594 C24.67435443 120.54100839 27.17061866 125.21181619 29.8984375 129.828125 C31 132 31 132 31 135 C29.03125 137.04296875 29.03125 137.04296875 26.5 139.1875 C25.6646875 139.90292969 24.829375 140.61835938 23.96875 141.35546875 C23.3190625 141.89816406 22.669375 142.44085938 22 143 C19.35329434 141.99627052 18.17911659 141.28585758 16.65625 138.85546875 C15.38453238 135.92106628 14.16029755 132.98044481 13 130 C12.47212891 128.66195312 12.47212891 128.66195312 11.93359375 127.296875 C8.22581162 116.65335923 7.09935271 105.41337123 5.49560547 94.30761719 C4.90880641 90.39138385 4.23627778 86.4945239 3.55004883 82.59472656 C1.47468463 70.75153656 -0.14457362 58.85937329 -1.6875 46.9375 C-1.79609344 46.10892487 -1.90468689 45.28034973 -2.01657104 44.42666626 C-2.3328861 42.00254622 -2.64326069 39.57779199 -2.94921875 37.15234375 C-3.04702133 36.37742081 -3.14482391 35.60249786 -3.24559021 34.80409241 C-4.00688482 28.51206835 -4.37132864 22.24174216 -4.56958008 15.90844727 C-4.76668023 13.01427659 -4.76668023 13.01427659 -6.3659668 11.13647461 C-8.50036504 9.65199473 -10.4483135 9.3448225 -13 9 C-9.28570342 4.82141635 -5.35814198 1.82153171 0 0 Z " fill="#E8E6D4" transform="translate(123,64)"/>
<path d="M0 0 C4.7937643 2.2294144 10.03159948 2.83001529 15.06640625 1.0078125 C16.58120052 0.32980974 18.0862655 -0.37057671 19.578125 -1.09765625 C21.94137474 -2.24170295 24.3431894 -3.21536554 26.7890625 -4.16796875 C27.23688489 4.85482315 26.74439698 12.43738104 20.44140625 19.44921875 C12.13926068 26.39711363 2.23355013 27.69115479 -8.2109375 26.83203125 C-17.65201947 25.00756139 -25.35333978 21.54762857 -31.6484375 14.140625 C-34.24083334 10.26103261 -34.88502507 6.46571755 -34.66015625 1.9140625 C-33.89481443 -1.63313048 -32.08771081 -3.10419659 -29.2109375 -5.16796875 C-18.5957181 -10.01404717 -9.47024014 -5.05751122 0 0 Z " fill="#B47649" transform="translate(236.2109375,329.16796875)"/>
<path d="M0 0 C2.32558805 1.49502089 3.92945292 2.54013092 5.625 4.6875 C6.50854942 9.75795927 6.25820728 14.34510056 4.0625 19 C-3.7497585 27.61351578 -12.08020666 31.95291149 -23.796875 32.87890625 C-32.94928261 33.27964726 -40.73619737 31.19842319 -47.875 25.3125 C-53.41834764 20.00721024 -55.24458013 14.53488608 -55.5 7 C-55.375 3.6875 -55.375 3.6875 -54.375 1.6875 C-53.80394531 1.97367187 -53.23289063 2.25984375 -52.64453125 2.5546875 C-51.89558594 2.92851562 -51.14664063 3.30234375 -50.375 3.6875 C-49.67761719 4.04070312 -48.98023438 4.39390625 -48.26171875 4.7578125 C-42.6801852 7.43456926 -38.30239464 8.97145594 -32.140625 6.95703125 C-28.49399673 5.53438169 -24.93737045 3.94666027 -21.3828125 2.30859375 C-13.8058181 -1.07502589 -7.96042818 -3.09572207 0 0 Z " fill="#B47749" transform="translate(189.375,323.3125)"/>
<path d="M0 0 C-1.53570207 7.82117118 -3.95314349 15.22853599 -6.5625 22.75 C-6.79321198 23.41930542 -7.02392395 24.08861084 -7.2616272 24.77819824 C-11.83651987 38.02211045 -16.73385555 51.14384355 -21.6875 64.25 C-22.04063263 65.18501343 -22.39376526 66.12002686 -22.75759888 67.08337402 C-27.68804701 80.1169214 -32.78272442 93.07870185 -38 106 C-39.32 106 -40.64 106 -42 106 C-43.75562746 74.59377545 -32.95262263 31.11415109 -11.90576172 6.96533203 C-5.52068061 0 -5.52068061 0 0 0 Z " fill="#2A2C34" transform="translate(301,89)"/>
<path d="M0 0 C5.18026773 2.92484301 7.77582433 6.74830359 9.6875 12.3125 C10.44015439 18.8517959 10.26086738 25.6100531 6.6875 31.3125 C2.15602443 36.21892035 -1.75414286 38.43601793 -8.5 38.75 C-13.66663311 38.67492343 -16.70073696 37.67898365 -20.5859375 34.2734375 C-25.66899468 28.50037256 -28.13860672 22.33455491 -27.65625 14.62890625 C-26.79372925 8.81669254 -24.89148851 5.489583 -20.3125 1.9375 C-14.03563757 -2.50861089 -7.04141938 -3.2701723 0 0 Z " fill="#23252F" transform="translate(236.3125,266.6875)"/>
<path d="M0 0 C2.81297336 1.40648668 3.45373351 3.26429774 5 6 C5.639375 7.010625 6.27875 8.02125 6.9375 9.0625 C13.62797114 21.01551134 15.29956654 35.44080998 17.921875 48.70336914 C22.46635158 71.56979572 27.95659215 93.89070808 39.58203125 114.29296875 C41.804518 118.53589801 41.804518 118.53589801 42 121 C41.00390625 122.921875 41.00390625 122.921875 39.5625 124.75 C39.08941406 125.36359375 38.61632812 125.9771875 38.12890625 126.609375 C37.75636719 127.06828125 37.38382813 127.5271875 37 128 C25.31285695 117.3753245 21.55105971 95.06718166 18.125 80.3125 C13.99978164 62.87240273 7.61387949 45.59107622 1.05859375 28.93359375 C-0.95351511 23.35760203 -1.15519644 18.30064158 -1.125 12.4375 C-1.12886719 11.68275391 -1.13273437 10.92800781 -1.13671875 10.15039062 C-1.13045683 6.59675207 -0.95795536 3.41753192 0 0 Z " fill="#E6E5D3" transform="translate(98,91)"/>
<path d="M0 0 C2 2 2 2 2.359375 4.4375 C2 7 2 7 0.453125 8.625 C-4.9064364 11.96997449 -10.27941991 14.51692647 -16.203125 16.7265625 C-19.87020402 18.39621021 -23.15878382 20.31756765 -25 24 C-24.29641357 24.27779297 -23.59282715 24.55558594 -22.86791992 24.84179688 C-17.63710324 26.95425064 -12.48130965 29.24101713 -7.3125 31.5 C-6.15943359 31.99886719 -5.00636719 32.49773437 -3.81835938 33.01171875 C-2.71943359 33.49253906 -1.62050781 33.97335937 -0.48828125 34.46875 C0.51678467 34.90638672 1.52185059 35.34402344 2.55737305 35.79492188 C5 37 5 37 7 39 C6.8125 42 6.8125 42 6 45 C2.41123098 47.39251268 1.23750792 47.55967086 -3 47 C-4.62524414 46.08105469 -4.62524414 46.08105469 -6.41015625 44.859375 C-11.92269334 41.29891787 -17.82190338 38.60401931 -23.75 35.8125 C-25.97402958 34.75666047 -28.19799081 33.70067697 -30.421875 32.64453125 C-31.39737305 32.18409424 -32.37287109 31.72365723 -33.37792969 31.24926758 C-35.59896072 30.19107244 -37.80442005 29.10980009 -40 28 C-40.39539965 23.96692358 -40.56316139 21.7696539 -38.125 18.4375 C-30.8513062 12.76401884 -22.70078384 8.75010482 -14.44604492 4.71557617 C-4.09916141 -0.3488648 -4.09916141 -0.3488648 0 0 Z " fill="#B2774B" transform="translate(124,262)"/>
<path d="M0 0 C21.26537284 7.48089817 21.26537284 7.48089817 26.10546875 15.9296875 C26 18 26 18 24.07421875 20.3515625 C20.50014336 23.57697766 16.65355589 26.47808345 12.8125 29.375 C12.0587207 29.94500732 11.30494141 30.51501465 10.52832031 31.10229492 C9.03400178 32.22848754 7.53779843 33.35218438 6.03955078 34.47314453 C4.30044828 35.77507738 2.56929559 37.08761831 0.83984375 38.40234375 C-0.01480469 39.03269531 -0.86945313 39.66304688 -1.75 40.3125 C-2.46671875 40.84488281 -3.1834375 41.37726563 -3.921875 41.92578125 C-6.48457602 43.25048572 -8.15222341 43.35361464 -11 43 C-11.66 42.34 -12.32 41.68 -13 41 C-13 39.1875 -13 39.1875 -12 37 C-7.35288669 32.8580077 -2.33143847 29.27414139 2.75 25.6875 C3.51699219 25.13771484 4.28398437 24.58792969 5.07421875 24.02148438 C5.80769531 23.50263672 6.54117187 22.98378906 7.296875 22.44921875 C7.96041992 21.97830811 8.62396484 21.50739746 9.30761719 21.0222168 C11 20 11 20 13 20 C11.87843639 17.11597928 10.7229248 15.38362101 7.9609375 13.91796875 C5.32850339 12.86917357 2.68197747 11.91489741 0 11 C-1.9811055 10.3181071 -3.96032057 9.63069438 -5.9375 8.9375 C-6.83339844 8.63714844 -7.72929687 8.33679688 -8.65234375 8.02734375 C-11.03115707 6.98636554 -12.32326995 5.95341818 -14 4 C-11.1783414 -3.86033468 -7.14414153 -1.99008821 0 0 Z " fill="#B1764C" transform="translate(278,263)"/>
<path d="M0 0 C2.94542959 2.1207093 4.38082113 3.57112569 5.8125 6.875 C6.33694418 12.81870075 6.28021879 16.84537047 3 22 C0.40010102 24.88877665 -0.9905448 24.99894942 -4.9375 25.4375 C-7.93001613 25.30400486 -9.09870692 24.94516282 -11.8125 23.4375 C-15.39683873 19.44352256 -16.82511135 15.69059033 -17.375 10.375 C-16.96936735 6.72430614 -16.22858361 4.88890468 -14 2 C-9.54847103 -0.96768598 -5.21856114 -0.75531806 0 0 Z " fill="#B2774B" transform="translate(233,273)"/>
<path d="M0 0 C2.87029869 1.79393668 4.49131638 2.98263276 6 6 C6.51248287 11.61210754 6.71524367 16.46355063 4.3125 21.625 C1.8346845 24.16978348 0.46195596 25.25815229 -3 26 C-7.04790328 25.91566868 -8.62579981 25.31466834 -11.75 22.6875 C-15.69957132 17.96995647 -16.49326771 14.49981916 -16.39453125 8.4140625 C-15.79215671 4.72824601 -13.92527412 3.15913089 -11 1 C-7.54260443 -0.72869779 -3.78024432 -0.48966895 0 0 Z " fill="#B1764B" transform="translate(174,273)"/>
<path d="M0 0 C1.15039382 3.45118146 0.85064263 4.13213565 -0.34838867 7.43847656 C-0.6704982 8.34022614 -0.99260773 9.24197571 -1.32447815 10.17105103 C-1.865756 11.64099014 -1.865756 11.64099014 -2.41796875 13.140625 C-2.78691757 14.16368744 -3.15586639 15.18674988 -3.53599548 16.24081421 C-4.74375669 19.58070751 -5.96519419 22.91540498 -7.1875 26.25 C-8.01523226 28.52767906 -8.84254269 30.80551145 -9.66943359 33.08349609 C-15.8806804 50.14638213 -22.29149818 67.12637153 -29 84 C-29.33 84 -29.66 84 -30 84 C-30.25204281 77.48507522 -29.35582714 71.66315414 -27.9375 65.3125 C-27.71271973 64.30574219 -27.48793945 63.29898438 -27.25634766 62.26171875 C-23.82556121 47.43291668 -18.97029151 33.5278888 -12.5 19.75 C-12.06155762 18.80962891 -11.62311523 17.86925781 -11.17138672 16.90039062 C-8.12679059 10.64323609 -4.47613182 5.32234944 0 0 Z " fill="#9D9B94" transform="translate(294,96)"/>
<path d="M0 0 C0.76838239 2.30514718 1.05485224 3.74541375 0.5378418 6.14501953 C-0.14465962 9.76788452 -0.16188404 13.32005232 -0.16796875 16.9921875 C-0.17220352 17.76612854 -0.17643829 18.54006958 -0.18080139 19.33746338 C-0.1906987 21.85003065 -0.19071767 24.36241663 -0.1875 26.875 C-0.18689575 27.73446228 -0.1862915 28.59392456 -0.18566895 29.47943115 C-0.14735814 49.51738651 1.65423964 68.87618717 4.67871094 88.68994141 C4.93442871 90.37676025 4.93442871 90.37676025 5.1953125 92.09765625 C5.35016113 93.09289307 5.50500977 94.08812988 5.66455078 95.11352539 C6.01181185 98.10163862 6.05744845 100.99455387 6 104 C4.01424699 101.02137049 3.49993683 99.37742538 2.81640625 95.94140625 C2.61241211 94.9253833 2.40841797 93.90936035 2.19824219 92.86254883 C1.98844727 91.77353271 1.77865234 90.6845166 1.5625 89.5625 C1.34368164 88.44319092 1.12486328 87.32388184 0.89941406 86.1706543 C-2.75253837 67.18940229 -5.03635847 48.65155335 -5.1875 29.3125 C-5.20063232 28.26682861 -5.21376465 27.22115723 -5.22729492 26.14379883 C-5.23663864 17.03798964 -4.74174433 7.97475183 0 0 Z " fill="#9A9891" transform="translate(168,58)"/>
<path d="M0 0 C1.31183731 3.93551194 0.13791444 6.47512503 -1.125 10.25 C-1.35437256 10.95946777 -1.58374512 11.66893555 -1.82006836 12.39990234 C-3.3641012 17.15377335 -4.96850502 21.8877065 -6.5625 26.625 C-11.98879365 42.88687062 -15.19475473 58.81422764 -17.52734375 75.75 C-18.22170876 80.52447678 -19.09112715 85.26225856 -20 90 C-20.33 90 -20.66 90 -21 90 C-20.33633635 58.44279325 -14.31363057 28.28627378 0 0 Z " fill="#999791" transform="translate(257,70)"/>
<path d="M0 0 C9.36198412 5.74485389 11.9204649 12.54304596 14.47546387 22.93359375 C15.61138294 27.93419645 16.59013444 32.9655218 17.5625 38 C17.8684851 39.5574713 18.17455669 41.11492561 18.48071289 42.67236328 C24.28540558 72.4378326 24.28540558 72.4378326 24 81 C21.55155946 77.3273392 20.90141706 73.72390463 20.01171875 69.4765625 C19.8283194 68.62687393 19.64492004 67.77718536 19.45596313 66.90174866 C19.06422594 65.08451472 18.67523374 63.26668728 18.28872681 61.44833374 C17.6864178 58.61991803 17.07467092 55.79370907 16.4597168 52.96801758 C15.02658105 46.38189924 13.59745355 39.79494665 12.18847656 33.20361328 C9.91464662 22.6190491 7.51078252 13.42166043 2 4 C1.32346208 2.67164814 0.65301453 1.34007248 0 0 Z " fill="#97958F" transform="translate(103,90)"/>
<path d="M0 0 C1.05316797 3.27857832 0.91867301 5.629302 0.328125 9.00390625 C0.15958008 10.03483398 -0.00896484 11.06576172 -0.18261719 12.12792969 C-0.36985352 13.26133789 -0.55708984 14.39474609 -0.75 15.5625 C-3.81434776 35.24812672 -4.79801007 55.13116181 -6 75 C-6.33 75 -6.66 75 -7 75 C-8.21927183 67.35272709 -8.20088142 59.72908652 -8.1875 52 C-8.18656342 51.30580963 -8.18562683 50.61161926 -8.18466187 49.89639282 C-8.13623565 33.37208049 -7.56072391 15.12144782 0 0 Z " fill="#91908A" transform="translate(210,71)"/>
<path d="M0 0 C0.66 0 1.32 0 2 0 C2.5878125 0.99 2.5878125 0.99 3.1875 2 C4.90765491 4.32732367 4.90765491 4.32732367 8.125 4.4375 C12.0365478 3.99587364 15.18466394 2.98574559 18.8671875 1.6875 C21.82111895 0.73531697 23.93029823 0.45427524 27 1 C29.43135826 2.45881495 30.97719669 3.9290347 33 6 C33 6.99 33 7.98 33 9 C32.01 9.33 31.02 9.66 30 10 C29.484375 9.319375 28.96875 8.63875 28.4375 7.9375 C26.09475135 5.65291072 26.09475135 5.65291072 22.75 6.0625 C19.96933824 6.75766544 17.57355209 7.51412747 14.9375 8.5625 C11.40403003 9.92152691 8.81981465 10.73145387 5 10 C2.44583134 8.21260003 0.20848447 6.19541651 -2 4 C-1.34 2.68 -0.68 1.36 0 0 Z " fill="#AD7751" transform="translate(152,254)"/>
<path d="M0 0 C10.05124821 15.07687232 7.13610952 37.87323404 7 55 C6.67 55 6.34 55 6 55 C1.98911555 24.57974755 1.98911555 24.57974755 0.75 12.875 C0.67023926 12.13209717 0.59047852 11.38919434 0.50830078 10.6237793 C0.14497838 7.06817031 -0.08344898 3.5743978 0 0 Z " fill="#999891" transform="translate(136,100)"/>
<path d="M0 0 C2.375 0.3125 2.375 0.3125 3.375 1.3125 C3.53120555 2.72577947 3.62556173 4.1460459 3.69140625 5.56640625 C3.75424805 6.84741211 3.75424805 6.84741211 3.81835938 8.15429688 C3.85767578 9.05212891 3.89699219 9.94996094 3.9375 10.875 C3.98068359 11.77669922 4.02386719 12.67839844 4.06835938 13.60742188 C4.17478142 15.84228485 4.27679988 18.07726308 4.375 20.3125 C2.34104865 18.2827949 0.31381889 16.24946492 -1.6875 14.1875 C-3.68292953 12.14386814 -3.68292953 12.14386814 -6.625 10.3125 C-5.5279073 0.6580842 -5.5279073 0.6580842 0 0 Z " fill="#E7E5D3" transform="translate(111.625,76.6875)"/>
<path d="M0 0 C0.66 0.33 1.32 0.66 2 1 C1.80664062 1.72960937 1.61328125 2.45921875 1.4140625 3.2109375 C-0.41303839 10.53743117 -1.48607939 17.6623767 -2.22558594 25.16308594 C-2.98575322 32.55973439 -4.39431638 39.74231003 -6 47 C-6.33 47 -6.66 47 -7 47 C-6.75362969 35.28509193 -5.89269771 23.83260866 -4.0625 12.25 C-3.89266602 11.14922119 -3.72283203 10.04844238 -3.54785156 8.91430664 C-3.37866211 7.8958667 -3.20947266 6.87742676 -3.03515625 5.828125 C-2.8844165 4.9196582 -2.73367676 4.01119141 -2.57836914 3.07519531 C-2.38750732 2.39038086 -2.19664551 1.70556641 -2 1 C-1.34 0.67 -0.68 0.34 0 0 Z " fill="#898883" transform="translate(243,113)"/>
<path d="M0 0 C0.66 0 1.32 0 2 0 C2.2475 0.804375 2.495 1.60875 2.75 2.4375 C3.70773463 5.05963766 3.70773463 5.05963766 5.625 5.8125 C6.800625 5.9053125 6.800625 5.9053125 8 6 C9.918125 6.1546875 9.918125 6.1546875 11.875 6.3125 C16.19013349 6.28029751 18.60923008 4.66417637 22 2 C22.66 1.67 23.32 1.34 24 1 C22.86450959 4.97421643 21.07442136 7.5036547 17.77734375 10.04296875 C14.29570477 11.91769743 11.90390574 11.61966758 8 11 C3.98690335 7.96788253 2.01506358 4.56040706 0 0 Z " fill="#AE7850" transform="translate(189,308)"/>
<path d="M0 0 C1.58959515 2.87627364 2.37530452 5.34429551 2.8515625 8.58984375 C2.98046875 9.45673828 3.109375 10.32363281 3.2421875 11.21679688 C3.43167969 12.56354492 3.43167969 12.56354492 3.625 13.9375 C3.7590625 14.83146484 3.893125 15.72542969 4.03125 16.64648438 C4.63750165 20.81291791 5.07006322 24.78172709 5 29 C3.04639384 26.06959076 2.46148809 24.33381312 1.7109375 20.96484375 C1.49179688 19.99095703 1.27265625 19.01707031 1.046875 18.01367188 C0.82515625 16.99853516 0.6034375 15.98339844 0.375 14.9375 C0.14554687 13.91849609 -0.08390625 12.89949219 -0.3203125 11.84960938 C-2 4.30601283 -2 4.30601283 -2 2 C-1.34 2 -0.68 2 0 2 C0 1.34 0 0.68 0 0 Z " fill="#858480" transform="translate(122,142)"/>
<path d="M0 0 C0.33 0 0.66 0 1 0 C1.50579714 3.04080421 2.00480759 6.08246646 2.5 9.125 C2.64308594 9.9809375 2.78617188 10.836875 2.93359375 11.71875 C3.65695734 16.19671505 4.17918816 20.44563435 4 25 C0.01103531 19.01655296 -1.61100529 10.26933955 -0.6875 3.125 C-0.460625 2.09375 -0.23375 1.0625 0 0 Z " fill="#7D7C79" transform="translate(170,137)"/>
<path d="M0 0 C1.67542976 0.28604898 3.34385343 0.61781233 5 1 C5.625 2.875 5.625 2.875 6 5 C5.34 5.66 4.68 6.32 4 7 C1.875 6.625 1.875 6.625 0 6 C-0.38218767 4.34385343 -0.71395102 2.67542976 -1 1 C-0.67 0.67 -0.34 0.34 0 0 Z " fill="#24252D" transform="translate(224,282)"/>
<path d="M0 0 C0.33 0 0.66 0 1 0 C1.20190089 6.35987804 0.6277833 11.85221129 -1 18 C-1.33 18 -1.66 18 -2 18 C-2.3690205 5.33029613 -2.3690205 5.33029613 0 0 Z " fill="#9C9A93" transform="translate(240,126)"/>
<path d="M0 0 C1.2065625 0.0309375 1.2065625 0.0309375 2.4375 0.0625 C2.4375 1.7125 2.4375 3.3625 2.4375 5.0625 C0.7875 5.3925 -0.8625 5.7225 -2.5625 6.0625 C-2.94468767 4.40635343 -3.27645102 2.73792976 -3.5625 1.0625 C-2.5625 0.0625 -2.5625 0.0625 0 0 Z " fill="#20222B" transform="translate(169.5625,281.9375)"/>
<path d="M0 0 C0 0.33 0 0.66 0 1 C-0.68707031 1.13277344 -1.37414062 1.26554687 -2.08203125 1.40234375 C-3.43361328 1.66724609 -3.43361328 1.66724609 -4.8125 1.9375 C-6.15248047 2.19853516 -6.15248047 2.19853516 -7.51953125 2.46484375 C-10.11397171 2.97741153 -10.11397171 2.97741153 -13 4 C-13.33 3.01 -13.66 2.02 -14 1 C-8.80451575 -1.20808081 -5.41735797 -0.93402724 0 0 Z " fill="#D5D3C5" transform="translate(182,47)"/>
<path d="M0 0 C1.41687119 4.25061356 0.19320039 6.71851625 -1 11 C-2.32 11.33 -3.64 11.66 -5 12 C-3.68938409 7.76570244 -2.05643741 3.92592596 0 0 Z " fill="#8C8B86" transform="translate(257,70)"/>
<path d="M0 0 C0.66 0 1.32 0 2 0 C2.2475 0.78375 2.495 1.5675 2.75 2.375 C4.15389099 5.32317108 5.00675737 5.9024777 8 7 C7.01 7.66 6.02 8.32 5 9 C4.16396622 7.68921847 3.3312426 6.37632511 2.5 5.0625 C2.0359375 4.33160156 1.571875 3.60070312 1.09375 2.84765625 C0 1 0 1 0 0 Z " fill="#957057" transform="translate(189,308)"/>
<path d="M0 0 C1.2380014 3.57644848 0.74926071 6.33694766 0 10 C-0.99 10.33 -1.98 10.66 -3 11 C-2.69078116 9.54096742 -2.37751201 8.08279278 -2.0625 6.625 C-1.88847656 5.81289062 -1.71445313 5.00078125 -1.53515625 4.1640625 C-1 2 -1 2 0 0 Z " fill="#8A8984" transform="translate(210,71)"/>
<path d="M0 0 C1.10844919 3.32534757 0.84454356 5.62182575 0 9 C-0.99 9.33 -1.98 9.66 -3 10 C-2.49287967 6.28111761 -1.88391785 3.26545761 0 0 Z " fill="#868581" transform="translate(168,58)"/>
<path d="M0 0 C0.99 0.33 1.98 0.66 3 1 C2.67 2.98 2.34 4.96 2 7 C1.01 7.33 0.02 7.66 -1 8 C-0.67 5.36 -0.34 2.72 0 0 Z " fill="#8B8A85" transform="translate(240,120)"/>
<path d="M0 0 C0.99 0 1.98 0 3 0 C3 1.65 3 3.3 3 5 C2.01 5.33 1.02 5.66 0 6 C0 4.02 0 2.04 0 0 Z " fill="#2B2D35" transform="translate(178,122)"/>
</svg>
