<svg id="SvgjsSvg1015" width="288" height="288" xmlns="http://www.w3.org/2000/svg" version="1.1" xmlns:xlink="http://www.w3.org/1999/xlink" xmlns:svgjs="http://svgjs.com/svgjs"><path id="SvgjsPath1023" d="M 144,0 C 5,0 0,5 0,144 0,283 5,288 144,288 283,288 288,283 288,144 288,5 283,0 144,0 Z" transform="matrix(1,0,0,1,0,0)" fill="#242c3c"></path><defs id="SvgjsDefs1016"></defs><g id="SvgjsG1017" transform="matrix(0.67,0,0,0.67,47.519999999999996,47.519999999999996)"><svg xmlns="http://www.w3.org/2000/svg" viewBox="0 0 24 24" width="288" height="288"><path fill="#F44336" d="M24 19.5V12a1.5 1.5 0 0 0-1.5-1.5h-3A1.5 1.5 0 0 0 18 12v7.5a1.5 1.5 0 0 0 1.5 1.5h3a1.5 1.5 0 0 0 1.5-1.5z" class="svgShape colorf44336-0 selectable"></path><path fill="#2196F3" d="M13.5 21a1.5 1.5 0 0 0 1.5-1.5v-15A1.5 1.5 0 0 0 13.5 3h-3C9.673 3 9 3.672 9 4.5v15c0 .828.673 1.5 1.5 1.5h3z" class="svgShape color2196f3-1 selectable"></path><path fill="#FFC107" d="M0 19.5c0 .828.673 1.5 1.5 1.5h3A1.5 1.5 0 0 0 6 19.5V9a1.5 1.5 0 0 0-1.5-1.5h-3C.673 7.5 0 8.172 0 9v10.5z" class="svgShape colorffc107-2 selectable"></path></svg></g></svg>