<svg xmlns="http://www.w3.org/2000/svg" width="437" height="195" viewBox="0 0 437 195" role="img" aria-labelledby="title description">
<title id="title">Akash Dewangan&apos;s GitHub Stats, Rank: C</title><desc id="description">Total Stars Earned: 3, Total Commits (last year): 127, Total PRs: 13, Total Issues: 0, Contributed to (last year): 0</desc>
<style>text{font-family:'Segoe UI',Ubuntu,Arial,sans-serif;fill:#e0f2fe}.heading{font-size:18px;font-weight:600;fill:#7dd3fc}</style>
<rect x="0.5" y="0.5" width="436" height="193.05" rx="14" fill="#020617" stroke="#1d4ed8"/>
<text class="heading" x="25" y="35">Akash Dewangan&apos;s GitHub Stats</text><g transform="translate(25 55)" fill="none" stroke="#38bdf8" stroke-width="1.4" stroke-linecap="round" stroke-linejoin="round"><path d="m8 1 2.1 4.5 4.9.7-3.5 3.4.8 4.9L8 12.2l-4.3 2.3.8-4.9L1 6.2l4.9-.7Z"/></g><g font-size="14" font-weight="700"><text x="50" y="67.5">Total Stars Earned:</text><text x="244.01" y="67.5">3</text></g><g transform="translate(25 80)" fill="none" stroke="#38bdf8" stroke-width="1.4" stroke-linecap="round" stroke-linejoin="round"><path d="M1 5a7 7 0 1 1-.2 5M1 1v4h4M8 4v4l3 1.3"/></g><g font-size="14" font-weight="700"><text x="50" y="92.5">Total Commits (last year):</text><text x="244.01" y="92.5">127</text></g><g transform="translate(25 105)" fill="none" stroke="#38bdf8" stroke-width="1.4" stroke-linecap="round" stroke-linejoin="round"><circle cx="4" cy="3" r="1.6"/><circle cx="4" cy="13" r="1.6"/><circle cx="12" cy="13" r="1.6"/><path d="M4 4.6v6.8M12 11.4V6q0-3-3-3H8m2-2L8 3l2 2"/></g><g font-size="14" font-weight="700"><text x="50" y="117.5">Total PRs:</text><text x="244.01" y="117.5">13</text></g><g transform="translate(25 130)" fill="none" stroke="#38bdf8" stroke-width="1.4" stroke-linecap="round" stroke-linejoin="round"><circle cx="8" cy="8" r="7.2"/><path d="M8 4.3v4"/><circle cx="8" cy="11.5" r=".4"/></g><g font-size="14" font-weight="700"><text x="50" y="142.5">Total Issues:</text><text x="244.01" y="142.5">0</text></g><g transform="translate(25 155)" fill="none" stroke="#38bdf8" stroke-width="1.4" stroke-linecap="round" stroke-linejoin="round"><path d="M3 11V3q0-2 2-2h8v12h-2M3 11q0-2 2-2h8M3 11q0 2 2 2M6 12v3l1.5-1 1.5 1v-3Z"/></g><g font-size="14" font-weight="700"><text x="50" y="167.5">Contributed to (last year):</text><text x="244.01" y="167.5">0</text></g><g fill="none" stroke="#7dd3fc" stroke-width="6"><circle cx="357" cy="110.5" r="40" opacity=".2"/><circle cx="357" cy="110.5" r="40" opacity=".8" stroke-linecap="round" stroke-dasharray="27.536 251.327" transform="rotate(-90 357 110.5)"/></g><g transform="translate(326 79)" fill="#e0f2fe"><path fill-rule="evenodd" d="M31 0a31 31 0 1 0 0 62 31 31 0 0 0 0-62ZM14 11l10 6q7-2 14 0l10-6 1 13q5 5 4 12-1 10-14 12 3 3 3 8H22v-8Q9 46 8 36q-1-7 5-12Z"/><path d="M25 46q-5 10-13 0l-3-1q4 12 16 9Z"/></g>
</svg>
